# Blender v2.93.2 OBJ File: ''
# www.blender.org
mtllib large_flat.mtl
o Icosphere.005
v -0.076712 -0.612952 -1.244153
v 1.607076 -0.822433 -0.150754
v -0.751066 -1.131826 1.219929
v 1.609975 -0.585490 0.626796
v 1.641793 -0.483125 -0.044256
v -1.523959 -0.848307 -0.400627
v -0.345476 -0.340633 -1.433107
v 1.000031 -0.357931 -1.241422
v 1.598705 -0.121142 0.301733
v -0.961610 -0.950758 1.466277
v 1.353587 -0.834611 1.223573
v 0.179289 -0.219963 1.591404
v -1.520592 -0.631481 0.321887
v -1.342323 -0.896367 0.894356
v -1.466274 -0.368928 0.612788
v -0.603060 -0.058141 -1.492879
v -1.590166 -0.313742 -0.651224
v -1.630111 0.183068 -0.627783
v 1.484707 0.052145 -0.907383
v 0.260007 -0.078864 -1.569605
v 1.421709 0.429790 -0.937503
v 1.490375 -0.124231 1.016805
v -1.218302 -0.343212 1.291701
v -1.619709 -0.096314 0.098527
v -0.196462 0.487493 -1.547503
v 1.601057 0.164067 -0.228339
v 0.951458 0.243370 1.495516
v 1.471748 0.230487 0.916526
v 1.053474 0.465450 1.399266
v -1.299233 -0.034152 1.144983
v -0.692756 0.176162 1.648074
v -1.185282 0.170962 1.344949
v -1.659422 0.205252 0.034709
v -1.486030 -0.039120 0.618980
v -1.484658 0.449897 0.660470
v 0.747201 0.654711 -1.036646
v -1.023366 0.521045 -0.787860
v 1.295854 0.735384 -0.368048
v 1.579316 0.148921 0.229487
v 1.573788 0.519613 -0.223786
v 1.467597 0.455799 0.783843
v 0.082131 0.644780 1.322904
vt 0.601766 -0.538240
vt 1.404763 -1.500000
vt 2.107750 0.051808
vt 0.491674 1.137408
vt 0.354734 0.785872
vt 0.558338 0.803372
vt 1.039495 0.414968
vt 0.439174 -0.389228
vt 0.650406 -1.206036
vt 0.780846 0.963496
vt -0.830318 0.639184
vt -0.639610 2.063640
vt -1.168321 1.393236
vt 1.863510 1.406544
vt 2.007882 1.786844
vt 1.690086 1.580336
vt 1.637722 0.430996
vt 1.710526 0.799520
vt 1.400942 0.790088
vt -0.377426 2.124708
vt -0.474526 1.262976
vt -0.155538 2.075184
vt 0.781955 1.343484
vt -1.110058 0.512308
vt 1.539302 1.238476
vt -0.378445 0.816240
vt 0.002842 0.512308
vt -0.100249 1.011964
vt -0.198566 2.389080
vt 1.054219 1.764708
vt 1.002282 1.284284
vt 1.181571 1.666280
vt 2.321678 -0.805316
vt 2.321678 -0.338368
vt 2.223410 -0.645524
vt 1.354394 1.183496
vt 1.485322 1.569444
vt 1.181571 1.577296
vt -1.159226 0.000052
vt -0.983974 -1.097916
vt -0.754390 0.353088
vt 0.949046 0.922444
vt 1.181571 0.691076
vt 1.142206 1.211148
vt -0.028753 0.456368
vt 0.306034 -0.378676
vt -0.656150 0.512308
vt 2.346910 -1.500000
vt 2.346910 -0.805316
vt 2.223410 -1.302164
vt -0.080741 -1.367424
vt -0.453558 -1.500000
vt 0.354734 -1.191748
vt 1.334798 2.043500
vt 1.465730 1.913508
vt 0.340126 0.512308
vt 0.340126 1.912668
vt 0.196870 1.322844
vt 0.196870 1.913952
vt 0.013670 1.605540
vt 0.196870 0.512308
vt 1.169566 2.500000
vt 0.354734 0.209896
vt 0.960990 0.697544
vt 0.013670 2.369712
vt 2.031566 0.765672
vt 2.265514 0.430996
vt 2.265514 1.148972
vt -1.458770 -0.600288
vt -0.862373 -1.492452
vt 1.653194 2.024756
vt 1.339578 2.298956
vt -1.458770 0.883004
vt -1.321810 1.894452
vt 0.013670 1.675028
vt 2.031566 2.189484
vt -0.933334 2.184444
vt 0.843395 2.145168
vt 0.357394 1.534700
vt 0.910599 0.430996
vt -0.639610 1.768112
vt 0.369962 -0.775816
vt -0.554790 0.978860
vt 0.825282 0.430996
vt 0.354734 -0.238536
vt 2.031566 0.979056
vt 1.843854 0.391080
vt 2.223410 0.195652
vt 2.222658 1.148972
vt 2.222658 1.994148
vt 2.031566 1.710816
vt 2.431283 1.863560
vt 2.222658 1.791588
vt 2.431283 1.148972
vt -0.639610 0.747768
vt 2.223410 -1.250640
vn 0.0103 -0.9791 -0.2034
vn 0.9934 -0.1111 0.0302
vn 0.0465 -0.9800 -0.1936
vn -0.2636 -0.7119 -0.6509
vn 0.1172 -0.4855 -0.8664
vn 0.9963 0.0641 0.0570
vn 0.1149 -0.3392 0.9337
vn -0.9619 -0.0878 0.2589
vn -0.6463 -0.0160 -0.7629
vn 0.4749 0.0090 -0.8800
vn 0.9805 0.1282 0.1491
vn -0.2215 0.1817 0.9581
vn -0.9658 -0.0753 0.2483
vn -0.5579 0.3399 -0.7571
vn 0.9707 0.1467 -0.1905
vn 0.7423 -0.0514 0.6681
vn -0.4568 -0.4778 0.7504
vn -0.9608 -0.0208 0.2765
vn -0.0825 0.9952 -0.0524
vn 0.9817 0.1530 0.1132
vn 0.2088 0.9570 0.2012
vn 0.5725 0.8122 0.1118
vn 0.6617 0.4528 -0.5976
vn -0.1121 0.9933 -0.0272
vn -0.0953 0.9953 0.0185
vn -0.5864 0.7965 -0.1476
vn -0.3019 0.8294 0.4700
vn -0.9203 -0.0305 0.3901
vn -0.9248 0.1954 0.3266
vn -0.0461 0.1692 0.9845
vn -0.1326 0.9711 0.1987
vn 0.0709 0.3691 0.9267
vn 0.1729 0.9797 0.1010
vn 0.7874 0.3235 0.5248
vn 0.9841 0.1071 0.1414
vn 0.9845 0.1033 0.1419
vn 0.9846 0.1018 0.1421
vn 0.9955 0.0822 0.0479
vn 0.9959 0.0757 0.0498
vn 0.9957 0.0774 0.0499
vn 0.9731 0.0774 -0.2171
vn 0.3354 0.9232 -0.1877
vn -0.0950 0.9846 -0.1469
vn -0.5077 0.6364 -0.5808
vn -0.4962 0.8667 -0.0510
vn -0.9648 -0.0646 0.2548
vn -0.9642 -0.0709 0.2554
vn -0.9640 -0.0729 0.2556
vn -0.9650 -0.0626 0.2547
vn -0.9403 -0.0626 0.3345
vn -0.6636 0.1719 0.7281
vn -0.1486 -0.4529 0.8791
vn 0.0900 0.0558 0.9944
vn 0.7277 0.2217 0.6490
vn 0.9843 0.0940 0.1495
vn 0.9840 0.1084 0.1412
vn 0.3049 0.5821 -0.7538
vn 0.3448 0.3125 -0.8851
vn -0.0893 -0.0331 -0.9955
vn -0.9896 -0.1386 -0.0391
vn -0.9967 -0.0794 -0.0163
vn -0.9841 -0.1770 0.0126
vn -0.9352 -0.0813 0.3447
vn -0.9382 -0.0368 0.3441
vn -0.8248 -0.1961 0.5304
vn 0.3824 -0.4730 0.7937
vn 0.3825 0.1896 0.9043
vn 0.9269 -0.0712 0.3685
vn 0.9952 0.0838 0.0498
vn 0.9961 0.0755 0.0451
vn 0.9852 0.0134 -0.1710
vn 0.4537 0.1755 -0.8737
vn 0.1011 -0.6338 -0.7669
vn -0.0917 -0.2854 -0.9540
vn -0.4501 -0.5579 -0.6973
vn -0.4894 -0.4191 -0.7647
vn -0.9937 -0.1060 0.0364
vn -0.9216 -0.3706 0.1155
vn -0.3788 -0.9253 0.0188
vn -0.4665 -0.8543 0.2293
vn 0.7370 -0.5061 -0.4480
vn 0.8824 0.0563 -0.4671
vn 0.2037 -0.8548 -0.4774
vn 0.1056 -0.7560 0.6460
vn 0.1398 -0.9900 0.0170
vn 0.8475 -0.5086 0.1518
usemtl None.010
s 1
f 1/1/1 2/2/1 3/3/1
f 4/4/2 2/5/2 5/6/2
f 1/1/3 3/3/3 6/7/3
f 1/1/4 6/7/4 7/8/4
f 1/1/5 7/8/5 8/9/5
f 4/4/6 5/6/6 9/10/6
f 10/11/7 11/12/7 12/13/7
f 13/14/8 14/15/8 15/16/8
f 16/17/9 17/18/9 18/19/9
f 19/20/10 20/21/10 21/22/10
f 4/4/11 9/10/11 22/23/11
f 10/11/12 12/13/12 23/24/12
f 13/14/13 15/16/13 24/25/13
f 16/26/14 18/27/14 25/28/14
f 19/20/15 21/22/15 26/29/15
f 27/30/16 28/31/16 29/32/16
f 30/33/17 31/34/17 32/35/17
f 33/36/18 34/37/18 35/38/18
f 36/39/19 37/40/19 38/41/19
f 39/42/20 40/43/20 41/44/20
f 41/45/21 38/41/21 42/46/21
f 41/45/22 40/47/22 38/41/22
f 40/48/23 36/49/23 38/50/23
f 38/41/24 35/51/24 42/46/24
f 38/41/25 37/40/25 35/51/25
f 37/40/26 33/52/26 35/51/26
f 35/51/27 32/53/27 42/46/27
f 35/38/28 34/37/28 32/54/28
f 34/37/29 30/55/29 32/54/29
f 32/56/30 29/57/30 42/58/30
f 32/59/31 31/60/31 29/61/31
f 31/62/32 27/30/32 29/32/32
f 29/63/33 41/45/33 42/46/33
f 29/32/34 28/31/34 41/44/34
f 28/31/35 39/42/36 41/44/37
f 26/64/38 40/43/39 39/42/40
f 26/29/41 21/22/41 40/65/41
f 21/66/42 36/67/42 40/68/42
f 25/69/43 37/40/43 36/39/43
f 25/69/44 18/70/44 37/40/44
f 18/70/45 33/52/45 37/40/45
f 24/25/46 34/37/47 33/36/48
f 24/25/46 15/16/49 34/37/47
f 15/16/50 30/55/50 34/37/50
f 23/71/51 31/72/51 30/55/51
f 23/24/52 12/13/52 31/73/52
f 12/13/53 27/74/53 31/73/53
f 22/23/54 28/31/54 27/30/54
f 22/23/55 9/10/55 28/31/55
f 9/10/56 39/42/36 28/31/35
f 21/22/57 25/28/57 36/75/57
f 21/22/58 20/21/58 25/28/58
f 20/21/59 16/26/59 25/28/59
f 18/19/60 24/25/60 33/36/60
f 18/19/61 17/18/61 24/25/61
f 17/18/62 13/14/62 24/25/62
f 15/16/63 23/71/63 30/55/63
f 15/16/64 14/15/64 23/71/64
f 14/15/65 10/76/65 23/71/65
f 12/13/66 22/77/66 27/74/66
f 12/78/67 11/79/67 22/23/67
f 11/79/68 4/4/68 22/23/68
f 9/10/69 26/64/38 39/42/40
f 9/10/69 5/6/70 26/64/38
f 5/6/71 19/80/71 26/64/71
f 8/81/72 20/21/72 19/20/72
f 8/9/73 7/8/73 20/82/73
f 7/83/74 16/26/74 20/21/74
f 7/8/75 17/84/75 16/85/75
f 7/8/76 6/7/76 17/84/76
f 6/86/77 13/14/77 17/18/77
f 6/86/78 14/15/78 13/14/78
f 6/7/79 3/3/79 14/87/79
f 3/3/80 10/88/80 14/87/80
f 5/89/81 8/90/81 19/91/81
f 5/92/82 2/93/82 8/94/82
f 2/2/83 1/1/83 8/9/83
f 3/95/84 11/12/84 10/11/84
f 3/3/85 2/2/85 11/96/85
f 2/5/86 4/4/86 11/79/86
