# Blender v2.93.2 OBJ File: ''
# www.blender.org
mtllib pillar_90.mtl
o Icosphere.007
v 0.155784 -0.653529 0.124014
v 0.313924 -0.600041 -0.018081
v 0.057089 -0.643789 0.081803
v 0.584301 -0.479592 0.228925
v 0.593287 -0.535424 -0.160107
v -0.062279 -0.622153 -0.028679
v 0.023119 -0.609764 -0.410622
v 0.357239 -0.595516 -0.150091
v 0.373214 0.261185 0.349757
v -0.011093 -0.554456 0.561708
v 0.363857 -0.629014 0.446416
v 0.132270 0.129215 0.469454
v -0.366159 -0.516209 -0.085066
v -0.205317 -0.582005 0.280135
v -0.139051 0.228224 0.389573
v -0.047900 -0.506568 -0.624047
v -0.198013 -0.513353 -0.463398
v -0.198871 -0.067263 -0.123396
v 0.424940 -0.385220 -0.509948
v 0.198576 -0.567401 -0.663538
v 0.390531 -0.029338 -0.169208
v 0.363543 0.232077 0.418482
v -0.115300 0.201305 0.455697
v -0.261588 0.172885 0.188328
v 0.089478 -0.177728 -0.335201
v 0.469362 0.219917 0.131514
v 0.293690 0.249194 0.449220
v 0.343492 0.338038 0.416643
v 0.222250 0.728917 0.626353
v -0.111532 0.279429 0.441503
v -0.036957 0.243844 0.479553
v -0.214546 0.734536 0.557091
v -0.201114 0.167778 0.053856
v -0.223210 0.298543 0.294358
v -0.118511 0.786488 0.165151
v 0.235058 0.010952 -0.063474
v -0.038580 0.023829 -0.001962
v 0.099298 0.577904 0.073732
v 0.433422 0.331886 0.243838
v 0.355816 0.311118 0.045597
v 0.321013 0.940670 0.384351
v 0.087300 1.339337 0.814625
vt 0.513072 1.624826
vt 0.613328 1.362142
vt 0.613328 1.719998
vt 1.531352 -1.050890
vt 1.746072 -0.623362
vt 1.338316 -0.593722
vt 2.009704 -0.712930
vt 2.103540 -0.614518
vt 2.186392 -0.425278
vt 1.896768 -0.015210
vt 1.629712 -0.488426
vt -0.368688 -0.777214
vt -0.012996 -1.126910
vt 0.082232 0.114426
vt 0.513072 -0.944242
vt 0.957840 -1.197534
vt 0.987692 -0.188510
vt 2.276676 1.882498
vt 1.778000 1.995890
vt 1.536060 0.978142
vt -0.955144 -1.150850
vt -0.712236 -1.068126
vt -0.604592 -0.356866
vt -1.500000 -0.854618
vt -1.270392 -1.197534
vt -1.347548 -0.242618
vt -0.002604 0.138398
vt 0.727288 -0.011518
vt 1.842716 1.026250
vt -1.031768 -0.573250
vt -1.344980 0.250286
vt 1.233652 -0.107582
vt 1.337772 -0.025122
vt 1.298352 0.535194
vt 1.456144 0.918094
vt 1.367740 0.976354
vt 1.356712 0.322650
vt 1.947968 1.042342
vt 1.689580 0.873754
vt 1.711452 0.270826
vt -1.119580 -0.152134
vt -0.761228 -0.144134
vt -0.923600 0.511634
vt 0.210516 0.093482
vt 0.431872 -0.058262
vt 0.513072 0.843210
vt -1.097340 1.155854
vt -0.668944 1.841034
vt -1.239632 0.261314
vt -0.630224 0.754886
vt -0.546360 0.016182
vt -0.368688 0.969634
vt 0.801076 0.691318
vt 1.338316 1.362142
vt 0.831280 0.015482
vt 0.170612 0.831182
vt 0.435244 1.623398
vt 0.077032 0.249338
vt 0.236380 -0.112530
vt 0.413352 -0.573006
vt -0.423600 0.108602
vt -0.437084 0.323550
vt 1.450864 1.016822
vt 1.317652 -0.160526
vt -0.368688 -0.825614
vt 1.338316 1.995890
vt 1.338312 -1.142350
vt 0.513072 -1.197534
vt 1.560080 0.197246
vt 1.341992 -0.098990
vt 1.860032 0.270826
vt 2.116312 0.154582
vt 2.500000 -0.210630
vt 2.500000 -0.721218
vt 2.405708 -1.150706
vt 1.919620 -1.197534
vn -0.0401 0.9490 0.3127
vn 0.2912 -0.9460 0.1425
vn -0.0274 -0.9862 -0.1635
vn -0.1040 -0.9930 -0.0555
vn 0.1300 -0.9851 -0.1129
vn 0.9608 0.2766 -0.0175
vn 0.3050 0.0643 0.9502
vn -0.9137 0.0199 0.4060
vn -0.6604 0.4544 -0.5979
vn -0.0618 0.6871 -0.7239
vn 0.9450 0.2316 0.2311
vn -0.0152 0.1368 0.9905
vn -0.8405 -0.0847 0.5351
vn -0.2334 0.6949 -0.6802
vn 0.3896 0.6563 -0.6461
vn 0.7121 -0.1474 0.6865
vn -0.5473 -0.3203 0.7732
vn -0.9709 0.1615 -0.1770
vn -0.2074 0.1829 -0.9610
vn 0.8921 0.2514 -0.3756
vn -0.1325 0.6902 -0.7114
vn 0.3839 0.4539 -0.8041
vn 0.1788 0.2717 -0.9456
vn 0.3479 0.6566 -0.6692
vn -0.2232 0.1863 -0.9568
vn -0.1593 0.1953 -0.9677
vn -0.8591 0.4907 -0.1455
vn -0.9647 0.1497 -0.2165
vn -0.7754 -0.3146 0.5476
vn -0.1523 -0.3219 0.9344
vn -0.1558 -0.2089 0.9654
vn 0.0915 -0.3329 0.9385
vn 0.9017 0.0676 0.4271
vn 0.9062 0.0563 0.4191
vn 0.8864 0.0577 0.4593
vn 0.7329 0.5845 -0.3481
vn 0.7368 0.4129 -0.5354
vn -0.4176 0.4540 -0.7871
vn -0.0723 0.8409 -0.5364
vn -0.0814 0.8387 -0.5385
vn -0.0816 0.8386 -0.5386
vn -0.0717 0.8410 -0.5362
vn 0.2524 0.5841 -0.7714
vn -0.7608 0.5383 -0.3626
vn -0.8056 -0.2186 0.5506
vn -0.7960 -0.1634 0.5829
vn -0.3760 0.1832 0.9083
vn -0.1353 -0.2833 0.9494
vn 0.0905 0.0460 0.9948
vn 0.4204 0.0952 0.9023
vn 0.9592 0.1852 0.2134
vn 0.8846 -0.0604 0.4625
vn -0.1321 0.8460 -0.5166
vn 0.0896 0.6563 -0.7492
vn 0.0389 0.6502 -0.7588
vn -0.8674 0.2943 -0.4013
vn -0.8548 0.3135 -0.4135
vn -0.8763 0.2866 -0.3873
vn -0.9197 0.1127 0.3762
vn -0.9368 0.0295 0.3485
vn -0.8212 -0.0333 0.5697
vn 0.3261 -0.2868 0.9008
vn 0.2016 0.0318 0.9790
vn 0.6940 0.0236 0.7196
vn 0.8973 -0.1340 0.4206
vn 0.9147 -0.0059 0.4041
vn 0.9075 0.2723 -0.3198
vn 0.7052 -0.6619 -0.2542
vn 0.1113 -0.9898 -0.0886
vn -0.2765 -0.8980 -0.3422
vn -0.3107 -0.8921 -0.3280
vn -0.3742 -0.9204 -0.1135
vn -0.3024 -0.9426 -0.1415
vn -0.3245 -0.9455 -0.0274
vn -0.2064 -0.9780 0.0315
vn -0.1041 -0.9803 0.1677
vn 0.1996 -0.8619 -0.4661
vn 0.2483 -0.9675 0.0483
vn 0.3977 -0.9121 0.0992
vn -0.1446 -0.9763 0.1612
vn 0.1385 -0.9874 -0.0765
vn 0.4840 -0.8686 -0.1062
usemtl None.012
s 1
f 1/1/1 2/2/1 3/3/1
f 4/4/2 2/5/2 5/6/2
f 1/7/3 3/8/3 6/9/3
f 1/7/4 6/9/4 7/10/4
f 1/7/5 7/10/5 8/11/5
f 4/12/6 5/13/6 9/14/6
f 10/15/7 11/16/7 12/17/7
f 13/18/8 14/19/8 15/20/8
f 16/21/9 17/22/9 18/23/9
f 19/24/10 20/25/10 21/26/10
f 4/12/11 9/14/11 22/27/11
f 10/15/12 12/17/12 23/28/12
f 13/18/13 15/20/13 24/29/13
f 16/21/14 18/23/14 25/30/14
f 19/24/15 21/26/15 26/31/15
f 27/32/16 28/33/16 29/34/16
f 30/35/17 31/36/17 32/37/17
f 33/38/18 34/39/18 35/40/18
f 36/41/19 37/42/19 38/43/19
f 39/44/20 40/45/20 41/46/20
f 41/47/21 38/43/21 42/48/21
f 41/47/22 40/49/22 38/43/22
f 40/49/23 36/41/23 38/43/23
f 38/43/24 35/50/24 42/48/24
f 38/43/25 37/42/25 35/50/25
f 37/42/26 33/51/26 35/50/26
f 35/50/27 32/52/27 42/48/27
f 35/40/28 34/39/28 32/37/28
f 34/39/29 30/35/29 32/37/29
f 32/53/30 29/34/30 42/54/30
f 32/53/31 31/55/31 29/34/31
f 31/55/32 27/32/32 29/34/32
f 29/56/33 41/46/33 42/57/33
f 29/56/34 28/58/34 41/46/34
f 28/58/35 39/44/35 41/46/35
f 26/59/36 40/45/36 39/44/36
f 26/59/37 21/60/37 40/45/37
f 21/26/38 36/41/38 40/49/38
f 25/30/39 37/42/40 36/41/41
f 25/30/39 18/23/42 37/42/40
f 18/23/43 33/51/43 37/42/43
f 24/61/44 34/62/44 33/51/44
f 24/29/45 15/20/45 34/39/45
f 15/20/46 30/35/46 34/39/46
f 23/63/47 31/36/47 30/35/47
f 23/28/48 12/17/48 31/55/48
f 12/17/49 27/32/49 31/55/49
f 22/64/50 28/33/50 27/32/50
f 22/27/51 9/14/51 28/58/51
f 9/14/52 39/44/52 28/58/52
f 21/26/53 25/30/53 36/41/53
f 21/26/54 20/25/54 25/30/54
f 20/25/55 16/21/55 25/30/55
f 18/23/56 24/61/56 33/51/56
f 18/23/57 17/22/57 24/61/57
f 17/22/58 13/65/58 24/61/58
f 15/20/59 23/63/59 30/35/59
f 15/20/60 14/19/60 23/63/60
f 14/19/61 10/66/61 23/63/61
f 12/17/62 22/64/62 27/32/62
f 12/17/63 11/16/63 22/64/63
f 11/16/64 4/67/64 22/64/64
f 9/14/65 26/59/65 39/44/65
f 9/14/66 5/13/66 26/59/66
f 5/13/67 19/68/67 26/59/67
f 8/11/68 20/69/68 19/70/68
f 8/11/69 7/10/69 20/69/69
f 7/10/70 16/71/70 20/69/70
f 7/10/71 17/72/71 16/71/71
f 7/10/72 6/9/72 17/72/72
f 6/9/73 13/73/73 17/72/73
f 6/9/74 14/74/74 13/73/74
f 6/9/75 3/8/75 14/74/75
f 3/8/76 10/75/76 14/74/76
f 5/6/77 8/11/77 19/70/77
f 5/6/78 2/5/78 8/11/78
f 2/5/79 1/7/79 8/11/79
f 3/8/80 11/76/80 10/75/80
f 3/8/81 2/5/81 11/76/81
f 2/5/82 4/4/82 11/76/82
