# Blender v2.93.2 OBJ File: ''
# www.blender.org
mtllib pillar_45.mtl
o Icosphere.006
v 0.053688 -0.653529 0.127813
v 0.265530 -0.600041 0.145763
v 0.016871 -0.643789 0.026982
v 0.270657 -0.479592 0.511946
v 0.560329 -0.535424 0.252106
v 0.015650 -0.622153 -0.135663
v 0.352479 -0.609764 -0.334961
v 0.391396 -0.595516 0.086937
v 0.038056 0.261185 0.440849
v -0.379564 -0.554456 0.305906
v -0.038795 -0.629014 0.500217
v -0.214163 0.129215 0.347216
v -0.151337 -0.516209 -0.395736
v -0.307352 -0.582005 -0.028447
v -0.341733 0.228224 0.094784
v 0.459389 -0.506568 -0.532860
v 0.239522 -0.513353 -0.532256
v -0.008852 -0.067263 -0.300066
v 0.700011 -0.385220 -0.110135
v 0.656943 -0.567401 -0.380274
v 0.428126 -0.029338 0.098110
v -0.018652 0.232077 0.480861
v -0.373660 0.201305 0.157371
v -0.278976 0.172885 -0.132321
v 0.342953 -0.177728 -0.234955
v 0.262944 0.219917 0.361478
v -0.088885 0.249194 0.451000
v -0.031042 0.338038 0.464988
v -0.266895 0.728917 0.520227
v -0.360735 0.279429 0.150398
v -0.337401 0.243843 0.230801
v -0.515512 0.734536 0.154471
v -0.139566 0.167778 -0.180328
v -0.329970 0.298543 -0.031748
v -0.164114 0.786488 -0.043920
v 0.244609 0.010952 0.057205
v 0.012407 0.023829 -0.100098
v 0.051654 0.577904 0.052217
v 0.156475 0.331886 0.412199
v 0.247809 0.311118 0.219897
v -0.022900 0.940670 0.426494
v -0.496510 1.339337 0.550797
vt 0.513072 1.624826
vt 0.613328 1.362142
vt 0.613328 1.719998
vt 1.531352 -1.050890
vt 1.746072 -0.623358
vt 1.338316 -0.593722
vt 2.009704 -0.712930
vt 2.103540 -0.614518
vt 2.186392 -0.425278
vt 1.896764 -0.015210
vt 1.629712 -0.488426
vt -0.368688 -0.777214
vt -0.012996 -1.126910
vt 0.082232 0.114426
vt 0.513072 -0.944242
vt 0.957844 -1.197534
vt 0.987692 -0.188510
vt 2.276676 1.882498
vt 1.778000 1.995890
vt 1.536060 0.978142
vt -0.955144 -1.150850
vt -0.712236 -1.068126
vt -0.604596 -0.356866
vt -1.500000 -0.854618
vt -1.270392 -1.197534
vt -1.347552 -0.242618
vt -0.002604 0.138398
vt 0.727288 -0.011514
vt 1.842716 1.026250
vt -1.031768 -0.573250
vt -1.344980 0.250286
vt 1.233652 -0.107582
vt 1.337772 -0.025122
vt 1.298352 0.535198
vt 1.456144 0.918094
vt 1.367744 0.976358
vt 1.356712 0.322650
vt 1.947968 1.042342
vt 1.689580 0.873754
vt 1.711452 0.270826
vt -1.119584 -0.152134
vt -0.761228 -0.144134
vt -0.923600 0.511634
vt 0.210520 0.093482
vt 0.431872 -0.058262
vt 0.513072 0.843210
vt -1.097340 1.155854
vt -0.668944 1.841034
vt -1.239636 0.261314
vt -0.630224 0.754886
vt -0.546360 0.016182
vt -0.368688 0.969634
vt 0.801076 0.691318
vt 1.338316 1.362142
vt 0.831280 0.015482
vt 0.170612 0.831186
vt 0.435244 1.623398
vt 0.077032 0.249338
vt 0.236380 -0.112530
vt 0.413352 -0.573006
vt -0.423600 0.108602
vt -0.437084 0.323550
vt 1.450864 1.016822
vt 1.317652 -0.160522
vt -0.368688 -0.825614
vt 1.338316 1.995890
vt 1.338316 -1.142346
vt 0.513072 -1.197534
vt 1.560080 0.197250
vt 1.341992 -0.098986
vt 1.860028 0.270826
vt 2.116312 0.154582
vt 2.500000 -0.210630
vt 2.500000 -0.721218
vt 2.405712 -1.150702
vt 1.919620 -1.197534
vn -0.2553 0.9490 0.1849
vn 0.0956 -0.9460 0.3098
vn 0.1005 -0.9862 -0.1319
vn -0.0308 -0.9930 -0.1138
vn 0.1713 -0.9851 0.0175
vn 0.6707 0.2766 0.6882
vn -0.4837 0.0643 0.8729
vn -0.9215 0.0199 -0.3879
vn -0.0165 0.4544 -0.8906
vn 0.4852 0.6871 -0.5408
vn 0.4787 0.2316 0.8469
vn -0.7322 0.1368 0.6672
vn -0.9655 -0.0847 -0.2462
vn 0.3359 0.6949 -0.6358
vn 0.7377 0.6563 -0.1585
vn -0.0127 -0.1474 0.9890
vn -0.9383 -0.3203 0.1306
vn -0.5358 0.1615 -0.8287
vn 0.5583 0.1829 -0.8092
vn 0.8845 0.2514 0.3930
vn 0.4277 0.6902 -0.5837
vn 0.8489 0.4539 -0.2709
vn 0.8116 0.2717 -0.5172
vn 0.7259 0.6566 -0.2047
vn 0.5445 0.1863 -0.8178
vn 0.5961 0.1953 -0.7787
vn -0.4823 0.4907 -0.7257
vn -0.5028 0.1497 -0.8514
vn -0.9300 -0.3146 -0.1901
vn -0.7853 -0.3219 0.5289
vn -0.8103 -0.2089 0.5476
vn -0.6213 -0.3329 0.7093
vn 0.3061 0.0676 0.9496
vn 0.3151 0.0563 0.9474
vn 0.2723 0.0577 0.9605
vn 0.7556 0.5845 0.2957
vn 0.8947 0.4129 0.1703
vn 0.2876 0.4540 -0.8433
vn 0.3414 0.8409 -0.4199
vn 0.3366 0.8388 -0.4280
vn 0.3366 0.8386 -0.4283
vn 0.3417 0.8410 -0.4194
vn 0.7350 0.5841 -0.3442
vn -0.2567 0.5383 -0.8027
vn -0.9529 -0.2186 -0.2101
vn -0.9698 -0.1634 -0.1810
vn -0.9195 0.1832 0.3479
vn -0.7846 -0.2833 0.5515
vn -0.6630 0.0460 0.7472
vn -0.3698 0.0952 0.9242
vn 0.5013 0.1852 0.8452
vn 0.2687 -0.0604 0.9613
vn 0.2860 0.8460 -0.4500
vn 0.6073 0.6563 -0.4477
vn 0.5796 0.6502 -0.4912
vn -0.3015 0.2943 -0.9069
vn -0.2840 0.3135 -0.9061
vn -0.3178 0.2866 -0.9038
vn -0.9039 0.1127 -0.4126
vn -0.8955 0.0295 -0.4441
vn -0.9775 -0.0333 -0.2084
vn -0.4332 -0.2868 0.8545
vn -0.5754 0.0318 0.8173
vn -0.0492 0.0236 0.9985
vn 0.3079 -0.1340 0.9420
vn 0.3318 -0.0059 0.9433
vn 0.8545 0.2723 0.4424
vn 0.6681 -0.6619 0.3399
vn 0.1408 -0.9898 0.0204
vn 0.0601 -0.8980 -0.4358
vn 0.0263 -0.8921 -0.4510
vn -0.1735 -0.9204 -0.3504
vn -0.1039 -0.9426 -0.3173
vn -0.2023 -0.9455 -0.2553
vn -0.1643 -0.9780 -0.1289
vn -0.1935 -0.9803 0.0390
vn 0.4764 -0.8619 -0.1737
vn 0.1348 -0.9675 0.2141
vn 0.2000 -0.9121 0.3578
vn -0.2165 -0.9763 0.0050
vn 0.1505 -0.9874 0.0485
vn 0.4088 -0.8686 0.2800
usemtl None.011
s 1
f 1/1/1 2/2/1 3/3/1
f 4/4/2 2/5/2 5/6/2
f 1/7/3 3/8/3 6/9/3
f 1/7/4 6/9/4 7/10/4
f 1/7/5 7/10/5 8/11/5
f 4/12/6 5/13/6 9/14/6
f 10/15/7 11/16/7 12/17/7
f 13/18/8 14/19/8 15/20/8
f 16/21/9 17/22/9 18/23/9
f 19/24/10 20/25/10 21/26/10
f 4/12/11 9/14/11 22/27/11
f 10/15/12 12/17/12 23/28/12
f 13/18/13 15/20/13 24/29/13
f 16/21/14 18/23/14 25/30/14
f 19/24/15 21/26/15 26/31/15
f 27/32/16 28/33/16 29/34/16
f 30/35/17 31/36/17 32/37/17
f 33/38/18 34/39/18 35/40/18
f 36/41/19 37/42/19 38/43/19
f 39/44/20 40/45/20 41/46/20
f 41/47/21 38/43/21 42/48/21
f 41/47/22 40/49/22 38/43/22
f 40/49/23 36/41/23 38/43/23
f 38/43/24 35/50/24 42/48/24
f 38/43/25 37/42/25 35/50/25
f 37/42/26 33/51/26 35/50/26
f 35/50/27 32/52/27 42/48/27
f 35/40/28 34/39/28 32/37/28
f 34/39/29 30/35/29 32/37/29
f 32/53/30 29/34/30 42/54/30
f 32/53/31 31/55/31 29/34/31
f 31/55/32 27/32/32 29/34/32
f 29/56/33 41/46/33 42/57/33
f 29/56/34 28/58/34 41/46/34
f 28/58/35 39/44/35 41/46/35
f 26/59/36 40/45/36 39/44/36
f 26/59/37 21/60/37 40/45/37
f 21/26/38 36/41/38 40/49/38
f 25/30/39 37/42/40 36/41/41
f 25/30/39 18/23/42 37/42/40
f 18/23/43 33/51/43 37/42/43
f 24/61/44 34/62/44 33/51/44
f 24/29/45 15/20/45 34/39/45
f 15/20/46 30/35/46 34/39/46
f 23/63/47 31/36/47 30/35/47
f 23/28/48 12/17/48 31/55/48
f 12/17/49 27/32/49 31/55/49
f 22/64/50 28/33/50 27/32/50
f 22/27/51 9/14/51 28/58/51
f 9/14/52 39/44/52 28/58/52
f 21/26/53 25/30/53 36/41/53
f 21/26/54 20/25/54 25/30/54
f 20/25/55 16/21/55 25/30/55
f 18/23/56 24/61/56 33/51/56
f 18/23/57 17/22/57 24/61/57
f 17/22/58 13/65/58 24/61/58
f 15/20/59 23/63/59 30/35/59
f 15/20/60 14/19/60 23/63/60
f 14/19/61 10/66/61 23/63/61
f 12/17/62 22/64/62 27/32/62
f 12/17/63 11/16/63 22/64/63
f 11/16/64 4/67/64 22/64/64
f 9/14/65 26/59/65 39/44/65
f 9/14/66 5/13/66 26/59/66
f 5/13/67 19/68/67 26/59/67
f 8/11/68 20/69/68 19/70/68
f 8/11/69 7/10/69 20/69/69
f 7/10/70 16/71/70 20/69/70
f 7/10/71 17/72/71 16/71/71
f 7/10/72 6/9/72 17/72/72
f 6/9/73 13/73/73 17/72/73
f 6/9/74 14/74/74 13/73/74
f 6/9/75 3/8/75 14/74/75
f 3/8/76 10/75/76 14/74/76
f 5/6/77 8/11/77 19/70/77
f 5/6/78 2/5/78 8/11/78
f 2/5/79 1/7/79 8/11/79
f 3/8/80 11/76/80 10/75/80
f 3/8/81 2/5/81 11/76/81
f 2/5/82 4/4/82 11/76/82
