# Blender v2.93.2 OBJ File: ''
# www.blender.org
mtllib spike.mtl
o Icosphere_Icosphere.004
v -0.009117 0.602627 0.560072
v 0.736617 0.110202 -0.152616
v -0.557075 1.935398 -0.024319
v 0.621759 -0.742728 -0.502453
v 1.152708 -1.116884 -0.512004
v -0.850048 -0.650539 0.271212
v -0.051732 -0.772377 0.925339
v 1.058069 -0.771131 -0.184327
v 0.420223 -1.291918 -1.194228
v -0.576249 1.355132 -0.545406
v -0.106993 1.357228 -0.332524
v -0.355897 0.063175 -0.418089
v -0.951089 -1.490417 0.119858
v -0.704695 -0.637173 0.117329
v -0.968581 -1.546310 -0.581320
v -0.464290 -1.629625 1.143555
v -1.040422 -1.730056 0.839140
v -0.906119 -1.966837 0.791209
v 1.535835 -1.294204 -0.356686
v 1.316257 -1.218487 0.345877
v 1.491012 -1.522586 -0.269483
v 0.100059 -0.608568 -0.704014
v -0.623807 -0.751692 -0.368922
v -0.961950 -1.638622 -0.249984
v 0.697738 -1.820451 1.145840
v 0.690370 -1.332467 -0.965202
v -0.136023 -0.975230 -0.842756
v 0.299159 -1.408579 -1.213116
v -0.027811 -1.458152 -1.025022
v -0.891649 -1.623528 -0.697181
v -0.483035 -1.266674 -0.776691
v -0.761449 -1.679911 -0.660925
v -0.867873 -1.741436 -0.033778
v -0.961264 -1.714548 -0.574867
v -0.650811 -1.680075 -0.097356
v 1.259737 -1.628689 0.254070
v -0.320135 -1.925826 0.901906
v 0.472578 -1.496892 -0.273972
v 0.461434 -1.438293 -1.235898
v 0.782991 -1.436896 -0.753210
v 0.373855 -1.455010 -1.024438
v -0.215223 -1.505849 -0.802274
vt 1.970064 -0.510119
vt 1.313608 -0.294863
vt 2.036128 -1.391223
vt 1.289904 1.687033
vt 1.474792 1.163049
vt 1.551996 1.972037
vt 0.885016 0.161697
vt 0.735228 1.089145
vt 0.124028 -0.370519
vt 0.672348 -0.670979
vt 2.036128 0.346961
vt 1.098444 0.229061
vt 0.954672 2.100397
vt 2.036128 -0.935935
vt 2.341008 -0.988035
vt 2.341008 -0.272459
vt -1.067116 0.497381
vt -0.822940 0.026185
vt -0.733232 0.676049
vt 0.344540 -1.140111
vt -0.045836 -1.062059
vt -0.041492 -1.200479
vt 0.017336 1.121617
vt 0.303460 1.416845
vt -0.045836 1.257297
vt 0.960504 1.578313
vt 2.309352 0.147957
vt -0.915964 0.658629
vt 0.885016 -1.391223
vt 1.795064 2.093801
vt 1.796964 2.195433
vt 1.166056 2.115521
vt -0.259216 0.443449
vt -0.045836 0.784625
vt -0.238584 0.759257
vt 0.842500 1.674557
vt 0.842500 1.898369
vt 0.764824 1.716485
vt -0.608960 2.154477
vt -0.915752 2.276749
vt -0.678608 2.032557
vt -0.705868 0.858493
vt -0.108332 1.718625
vt -0.935060 1.386101
vt -1.500000 1.511685
vt -1.257380 1.261181
vt -1.364728 1.537365
vt -1.160060 1.858877
vt -0.993388 2.168561
vt -1.005532 2.248485
vt -1.317236 1.774797
vt -0.664948 0.777005
vt -0.446392 0.579621
vt -1.470964 1.603881
vt 1.280380 2.143537
vt 0.959976 2.195433
vt -1.381684 1.339633
vt -1.049884 0.784625
vt -0.098780 1.083893
vt -0.098780 2.079773
vt -0.769208 0.770045
vt -1.019676 0.675085
vt -0.670472 0.747329
vt -0.581840 0.196789
vt -0.316464 -0.241991
vt 2.341008 -0.815131
vt 2.382248 -1.391223
vt 2.500000 -1.020791
vt 0.826672 1.674561
vt 0.764824 1.140405
vt 0.826672 1.089145
vt 0.885016 2.150925
vt -0.065984 0.784625
vt -0.065984 1.781789
vt -0.098780 1.134973
vt 0.447024 2.112101
vt 0.764824 1.089145
vt 0.764824 2.290897
vt 0.447024 1.673969
vt -0.735356 2.234361
vt -1.488568 0.626905
vt -1.500000 0.477389
vt -0.045836 -0.954331
vt 2.500000 -0.329731
vt 2.245364 1.161829
vt 2.434160 0.390305
vt 2.434160 1.599165
vt 1.005112 0.390305
vt 0.447024 1.089145
vt 1.796964 2.318705
vt 2.170412 1.460873
vt 2.185892 2.318705
vt 1.796964 0.716185
vt 2.245364 0.390305
vt 2.245364 1.460873
vt -0.941924 -0.004803
vt -0.181068 -1.391223
vt 1.615104 1.701517
vt 0.885016 0.390305
vt 2.114924 -1.391223
vt 1.671204 -1.079399
vn 0.7478 0.4993 0.4375
vn 0.2257 0.3435 -0.9116
vn -0.5195 0.1549 0.8403
vn -0.5972 0.2232 0.7704
vn 0.6974 0.1637 0.6977
vn 0.4379 0.6376 -0.6338
vn 0.4131 -0.0193 -0.9105
vn -0.9607 0.2774 0.0019
vn -0.3779 -0.3848 0.8421
vn 0.9499 -0.0702 0.3045
vn 0.4134 0.6506 -0.6370
vn 0.0760 -0.0849 -0.9935
vn -0.9996 0.0138 0.0238
vn -0.1078 -0.6473 0.7546
vn 0.5495 -0.3900 -0.7389
vn -0.5112 0.2009 -0.8357
vn 0.1136 -0.3383 -0.9342
vn 0.2463 -0.9650 -0.0905
vn 0.0505 -0.9487 -0.3120
vn 0.0756 -0.9960 -0.0474
vn 0.0619 -0.9960 -0.0637
vn 0.0885 -0.9938 -0.0671
vn -0.0573 -0.9854 -0.1605
vn 0.1346 -0.9781 -0.1586
vn 0.1130 -0.9555 -0.2724
vn 0.1804 -0.9396 -0.2908
vn 0.2897 -0.9554 -0.0571
vn 0.1576 -0.9870 -0.0312
vn -0.1466 -0.7518 -0.6429
vn 0.3183 -0.9458 0.0653
vn -0.4583 0.0604 -0.8867
vn -0.3802 0.2508 -0.8903
vn 0.0080 -0.9792 -0.2030
vn 0.0079 -0.9703 -0.2419
vn -0.1994 -0.9669 -0.1590
vn 0.7771 -0.3595 -0.5166
vn 0.2519 -0.8200 -0.5140
vn 0.0131 -0.9811 -0.1930
vn 0.1324 -0.9829 -0.1279
vn -0.0457 -0.8334 0.5508
vn 0.1157 -0.9595 -0.2568
vn -0.8451 -0.5210 0.1200
vn -0.9990 -0.0431 0.0080
vn -0.8488 -0.0571 -0.5256
vn -0.5235 0.4364 -0.7318
vn -0.7953 0.2276 -0.5619
vn -0.3970 0.2742 -0.8759
vn -0.2440 0.4767 -0.8445
vn -0.3081 0.4550 -0.8355
vn -0.0897 0.2492 -0.9643
vn -0.0646 0.9832 0.1707
vn 0.8505 -0.3337 0.4065
vn 0.1212 0.7459 0.6550
vn -0.3740 -0.8901 -0.2605
vn -0.8740 -0.4749 -0.1028
vn -0.9774 0.2045 -0.0533
vn -0.5874 0.4369 -0.6812
vn -0.8630 0.4405 -0.2473
vn -0.9861 0.0084 -0.1660
vn -0.0331 0.3723 -0.9275
vn -0.3781 0.1333 -0.9161
vn 0.3990 0.2107 -0.8924
vn 0.6322 0.3715 -0.6799
vn 0.6522 0.1593 -0.7411
vn 0.5070 0.4535 -0.7330
vn 0.7548 0.6342 0.1676
vn 0.4420 0.7800 0.4429
vn 0.4008 0.0401 0.9153
vn -0.4796 0.4261 0.7671
vn -0.5161 0.4683 0.7171
vn -0.9880 0.1330 -0.0784
vn -0.7202 0.2060 -0.6624
vn -0.7271 0.0039 -0.6865
vn -0.9981 0.0559 -0.0255
vn 0.5239 0.6571 -0.5420
vn 0.9343 0.3441 -0.0933
vn 0.7504 0.2517 0.6112
vn 0.3194 0.6273 -0.7103
vn 0.8137 0.5682 0.1225
vn 0.5458 0.2540 -0.7985
usemtl None.013
s 1
f 1/1/1 2/2/1 3/3/1
f 4/4/2 2/5/2 5/6/2
f 1/7/3 3/8/3 6/9/3
f 1/7/4 6/9/4 7/10/4
f 1/1/5 7/11/5 8/12/5
f 4/4/6 5/6/6 9/13/6
f 10/14/7 11/15/7 12/16/7
f 13/17/8 14/18/8 15/19/8
f 16/20/9 17/21/9 18/22/9
f 19/23/10 20/24/10 21/25/10
f 4/4/11 9/13/11 22/26/11
f 10/14/12 12/16/12 23/27/12
f 13/17/13 15/19/13 24/28/13
f 16/20/14 18/22/14 25/29/14
f 19/30/15 21/31/15 26/32/15
f 27/33/16 28/34/16 29/35/16
f 30/36/17 31/37/17 32/38/17
f 33/39/18 34/40/18 35/41/18
f 36/42/19 37/43/19 38/44/19
f 39/45/20 40/46/20 41/47/20
f 41/47/21 38/44/21 42/48/21
f 41/47/22 40/46/22 38/44/22
f 40/46/23 36/42/23 38/44/23
f 38/44/24 35/41/24 42/48/24
f 38/44/25 37/43/25 35/41/25
f 37/43/26 33/39/26 35/41/26
f 35/41/27 32/49/27 42/48/27
f 35/41/28 34/40/28 32/49/28
f 34/40/29 30/50/29 32/49/29
f 32/49/30 29/51/30 42/48/30
f 32/52/31 31/53/31 29/35/31
f 31/53/32 27/33/32 29/35/32
f 29/51/33 41/47/33 42/48/33
f 29/51/34 28/54/34 41/47/34
f 28/54/35 39/45/35 41/47/35
f 26/32/36 40/55/36 39/56/36
f 26/57/37 21/58/37 40/46/37
f 21/58/38 36/42/38 40/46/38
f 25/59/39 37/43/39 36/42/39
f 25/59/40 18/60/40 37/43/40
f 18/60/41 33/39/41 37/43/41
f 24/28/42 34/61/42 33/62/42
f 24/28/43 15/19/43 34/61/43
f 15/19/44 30/63/44 34/61/44
f 23/64/45 31/53/45 30/63/45
f 23/64/46 12/65/46 31/53/46
f 12/65/47 27/33/47 31/53/47
f 22/66/48 28/67/48 27/68/48
f 22/69/49 9/70/49 28/71/49
f 9/13/50 39/56/50 28/72/50
f 21/73/51 25/74/51 36/75/51
f 21/25/52 20/24/52 25/76/52
f 20/77/53 16/78/53 25/79/53
f 18/60/54 24/80/54 33/39/54
f 18/81/55 17/82/55 24/28/55
f 17/82/56 13/17/56 24/28/56
f 15/19/57 23/64/57 30/63/57
f 15/19/58 14/18/58 23/64/58
f 14/18/59 10/83/59 23/64/59
f 12/84/60 22/66/60 27/68/60
f 12/85/61 11/86/61 22/87/61
f 11/88/62 4/4/62 22/26/62
f 9/13/63 26/32/63 39/56/63
f 9/13/64 5/6/64 26/32/64
f 5/6/65 19/30/65 26/32/65
f 8/89/66 20/24/66 19/23/66
f 8/90/67 7/91/67 20/92/67
f 7/93/68 16/94/68 20/95/68
f 7/10/69 17/21/69 16/20/69
f 7/10/70 6/9/70 17/21/70
f 6/96/71 13/17/71 17/82/71
f 6/96/72 14/18/72 13/17/72
f 6/96/73 3/97/73 14/18/73
f 3/97/74 10/83/74 14/18/74
f 5/6/75 8/98/75 19/30/75
f 5/99/76 2/2/76 8/12/76
f 2/2/77 1/1/77 8/12/77
f 3/100/78 11/15/78 10/14/78
f 3/3/79 2/2/79 11/101/79
f 2/5/80 4/4/80 11/88/80
