# Blender v2.93.2 OBJ File: ''
# www.blender.org
mtllib stub.mtl
o Icosphere_Icosphere.003
v -0.011154 0.731405 0.210275
v 0.111491 0.761068 0.048609
v -0.235389 0.863931 0.095163
v 0.219158 -0.028640 -0.180134
v 0.436945 -0.125046 -0.289299
v -0.354647 0.048721 0.214467
v -0.023162 0.051746 0.487259
v 0.392124 0.050157 -0.084166
v 0.191606 -0.296323 -0.612835
v -0.336530 0.785173 -0.015083
v -0.062618 0.812354 -0.107453
v -0.205862 0.354474 -0.138308
v -0.598221 -0.331968 0.077103
v -0.313048 0.112442 0.148977
v -0.635028 -0.427068 -0.243532
v -0.343009 -0.329662 0.661155
v -0.635888 -0.343780 0.401008
v -0.562241 -0.482777 0.378695
v 0.654066 -0.173687 -0.211796
v 0.619367 -0.134046 0.230844
v 0.624113 -0.283733 -0.162829
v 0.093408 0.089448 -0.233170
v -0.396073 0.006121 -0.007867
v -0.629404 -0.467354 -0.054346
v 0.295260 -0.498104 0.680143
v 0.339549 -0.310517 -0.480804
v -0.066671 -0.106538 -0.327196
v 0.119259 -0.365647 -0.621198
v -0.075348 -0.389197 -0.508508
v -0.589508 -0.476109 -0.310320
v -0.345521 -0.266656 -0.349648
v -0.512349 -0.509126 -0.287272
v -0.567066 -0.498559 0.039225
v -0.631274 -0.526825 -0.235449
v -0.443354 -0.476708 0.020885
v 0.576991 -0.374714 0.179068
v -0.261613 -0.515833 0.527740
v 0.201436 -0.376377 -0.076174
v 0.215609 -0.384431 -0.633853
v 0.359086 -0.351030 -0.368302
v 0.163374 -0.388715 -0.507937
v -0.187030 -0.411244 -0.375182
vt 1.556568 1.682536
vt 1.287668 1.682536
vt 1.585413 1.313128
vt 1.948592 -0.437084
vt 2.175432 -1.500000
vt 2.175432 -0.191956
vt -0.851763 0.210900
vt -0.520220 0.165936
vt -0.859535 1.204968
vt -1.380548 1.016296
vt 1.645228 0.398428
vt 1.932873 1.313128
vt 1.022368 1.313128
vt 0.703089 1.518924
vt 0.769049 1.773240
vt 0.207288 1.912568
vt 0.666621 -1.363648
vt 1.031976 -1.352972
vt 0.788484 -0.770536
vt -0.682635 1.799424
vt -0.799080 1.115212
vt -0.362627 1.969556
vt -1.467056 1.611368
vt -0.991399 1.794256
vt -1.074323 1.932716
vt 2.298820 -0.254236
vt 2.175432 -0.664636
vt 2.413357 -0.370152
vt 0.569221 1.323448
vt 0.404457 -0.387872
vt -0.575652 1.994576
vt 1.022368 1.727196
vt 1.256248 1.313128
vt 1.256248 2.500000
vt 1.022368 1.930792
vt 1.017284 2.033848
vt 0.459356 1.980564
vt 0.959848 -0.114472
vt 1.307857 0.328368
vt 1.012844 0.308584
vt 0.300000 0.324484
vt 0.640096 0.084796
vt 0.356960 0.360416
vt -1.210403 -0.213328
vt -1.467056 -0.478864
vt -1.080420 -0.317480
vt 0.188309 -0.814716
vt -0.544068 0.144520
vt -0.405227 -0.860064
vt -0.758012 -1.500000
vt -0.417195 -1.296956
vt -0.734431 -1.322832
vt -1.045464 -0.941884
vt -1.364988 -0.617256
vt -1.464312 -0.598036
vt -1.004960 -1.168548
vt -0.856863 -1.425840
vt -0.509636 -1.417544
vt 0.024777 -1.245676
vt 0.188309 -0.046572
vt 0.179573 0.165936
vt 0.179573 1.314792
vt 0.117397 0.888388
vt -0.979384 0.165936
vt -1.339675 -0.283368
vt -0.410899 2.088940
vt 0.215017 0.236124
vt 0.188309 0.358840
vt 1.109993 -0.390104
vt 1.395869 0.240748
vt 1.414836 0.360416
vt 2.445092 0.360416
vt 2.445092 1.579044
vt 2.339984 0.814752
vt 2.413357 -1.500000
vt 0.117397 0.165936
vt 0.117397 1.553044
vt -0.362627 0.832108
vt -0.617288 1.301756
vt -0.362627 0.321824
vt 1.642216 0.310124
vt 1.414836 -0.142492
vt 1.642216 -0.368416
vt 0.716605 0.360416
vt 0.188309 2.033848
vt 1.414836 -0.764536
vt 1.948592 -0.580960
vt 1.467084 -0.368416
vt 1.948592 -1.500000
vt 1.932873 0.883212
vt 2.339984 0.360416
vt 2.339984 1.684052
vt 1.663404 1.313128
vt 1.663404 2.375436
vt 1.585413 1.405316
vt 0.964241 1.498540
vt 1.005988 0.481052
vt 1.381460 0.360416
vt 0.713141 -1.500000
vt 1.256244 1.374556
vn 0.3095 0.8656 0.3936
vn -0.3604 0.2138 -0.9079
vn -0.3593 0.1864 0.9144
vn -0.6059 0.3094 0.7329
vn 0.7895 0.2196 0.5731
vn 0.1082 0.8423 -0.5280
vn -0.3299 0.1658 -0.9294
vn -0.8349 0.5464 -0.0662
vn -0.5902 -0.4231 0.6875
vn 0.9704 -0.2215 0.0959
vn 0.7112 0.5767 -0.4021
vn -0.6134 0.0396 -0.7888
vn -0.9843 0.1643 0.0643
vn -0.2220 -0.7746 0.5922
vn 0.6862 -0.4434 -0.5767
vn -0.4817 0.4836 -0.7308
vn 0.1359 -0.3335 -0.9329
vn 0.1820 -0.9816 0.0585
vn 0.1805 -0.9818 0.0597
vn 0.1757 -0.9824 0.0634
vn 0.1043 -0.9836 -0.1471
vn 0.1649 -0.9857 0.0349
vn 0.0725 -0.9971 0.0221
vn 0.1807 -0.9835 0.0122
vn 0.0462 -0.9970 -0.0616
vn 0.1430 -0.9872 -0.0706
vn 0.1343 -0.9831 -0.1240
vn 0.1536 -0.9794 -0.1307
vn 0.2964 -0.9545 0.0341
vn 0.1743 -0.9826 0.0643
vn -0.1503 -0.7776 -0.6106
vn 0.3126 -0.9440 0.1058
vn -0.4709 0.0984 -0.8767
vn -0.2385 0.5295 -0.8141
vn 0.0024 -0.9869 -0.1612
vn 0.0025 -0.9797 -0.2005
vn -0.2049 -0.9716 -0.1181
vn 0.7521 -0.5675 -0.3350
vn 0.4874 -0.7911 -0.3695
vn 0.3770 -0.9067 -0.1893
vn 0.0841 -0.9775 -0.1934
vn -0.1715 0.8304 0.5301
vn -0.1326 -0.9900 0.0479
vn -0.6909 -0.6847 0.2320
vn -0.9991 -0.0358 0.0221
vn -0.8486 -0.0744 -0.5238
vn -0.5917 0.5851 -0.5545
vn -0.8624 0.3258 -0.3875
vn -0.1228 0.3443 -0.9308
vn -0.3123 0.6060 -0.7316
vn -0.4583 0.5614 -0.6890
vn -0.0873 0.2086 -0.9741
vn 0.0451 0.9638 0.2627
vn 0.8416 -0.5014 0.2008
vn 0.1654 0.7045 0.6902
vn -0.5030 -0.8630 0.0473
vn -0.8695 -0.4796 0.1178
vn -0.9446 0.3131 -0.0984
vn -0.3883 0.5964 -0.7025
vn -0.8998 0.3758 0.2216
vn -0.9010 0.0728 0.4276
vn 0.0574 0.3933 -0.9176
vn -0.1959 0.1268 -0.9724
vn 0.5715 0.2588 -0.7788
vn 0.6443 0.3391 -0.6855
vn 0.6394 0.3637 -0.6774
vn 0.3871 0.5561 -0.7355
vn 0.6445 0.7644 -0.0179
vn 0.3629 0.8945 0.2612
vn 0.3914 0.0894 0.9159
vn -0.5095 0.6722 0.5372
vn -0.4939 0.6358 0.5931
vn -0.8273 0.5567 -0.0759
vn -0.8410 0.5409 -0.0079
vn -0.8658 0.0538 -0.4975
vn -0.7738 0.1244 0.6210
vn 0.3658 0.7457 -0.5569
vn 0.9139 0.3849 -0.1290
vn 0.7657 0.1874 0.6153
vn -0.2284 0.8790 -0.4185
vn 0.2841 0.9588 -0.0018
vn 0.6849 0.2873 -0.6696
usemtl None.007
s 1
f 1/1/1 2/2/1 3/3/1
f 4/4/2 2/5/2 5/6/2
f 1/7/3 3/8/3 6/9/3
f 1/7/4 6/9/4 7/10/4
f 1/11/5 7/12/5 8/13/5
f 4/14/6 5/15/6 9/16/6
f 10/17/7 11/18/7 12/19/7
f 13/20/8 14/21/8 15/22/8
f 16/23/9 17/24/9 18/25/9
f 19/26/10 20/27/10 21/28/10
f 4/14/11 9/16/11 22/29/11
f 10/17/12 12/19/12 23/30/12
f 13/20/13 15/22/13 24/31/13
f 16/32/14 18/33/14 25/34/14
f 19/35/15 21/36/15 26/37/15
f 27/38/16 28/39/16 29/40/16
f 30/41/17 31/42/17 32/43/17
f 33/44/18 34/45/19 35/46/20
f 36/47/21 37/48/21 38/49/21
f 39/50/22 40/51/22 41/52/22
f 41/52/23 38/49/23 42/53/23
f 41/52/24 40/51/24 38/49/24
f 40/51/25 36/47/25 38/49/25
f 38/49/26 35/46/26 42/53/26
f 38/49/27 37/48/27 35/46/27
f 37/48/28 33/44/28 35/46/28
f 35/46/29 32/54/29 42/53/29
f 35/46/20 34/45/19 32/54/30
f 34/45/31 30/55/31 32/54/31
f 32/54/32 29/56/32 42/53/32
f 32/43/33 31/42/33 29/40/33
f 31/42/34 27/38/34 29/40/34
f 29/56/35 41/52/35 42/53/35
f 29/56/36 28/57/36 41/52/36
f 28/57/37 39/50/37 41/52/37
f 26/58/38 40/51/38 39/50/38
f 26/58/39 21/59/39 40/51/39
f 21/59/40 36/47/40 40/51/40
f 25/60/41 37/48/41 36/47/41
f 25/61/42 18/62/42 37/63/42
f 18/64/43 33/44/43 37/48/43
f 24/65/44 34/45/44 33/44/44
f 24/31/45 15/22/45 34/66/45
f 15/67/46 30/41/46 34/68/46
f 23/30/47 31/42/47 30/41/47
f 23/30/48 12/19/48 31/42/48
f 12/19/49 27/38/49 31/42/49
f 22/69/50 28/39/50 27/38/50
f 22/69/51 9/70/51 28/39/51
f 9/70/52 39/71/52 28/39/52
f 21/72/53 25/73/53 36/74/53
f 21/28/54 20/27/54 25/75/54
f 20/76/55 16/77/55 25/78/55
f 18/64/56 24/65/56 33/44/56
f 18/25/57 17/24/57 24/31/57
f 17/24/58 13/20/58 24/31/58
f 15/67/59 23/30/59 30/41/59
f 15/22/60 14/21/60 23/79/60
f 14/21/61 10/80/61 23/79/61
f 12/81/62 22/82/62 27/83/62
f 12/19/63 11/18/63 22/69/63
f 11/84/64 4/14/64 22/29/64
f 9/16/65 26/37/65 39/85/65
f 9/16/66 5/15/66 26/37/66
f 5/15/67 19/35/67 26/37/67
f 8/86/68 20/87/68 19/88/68
f 8/86/69 7/89/69 20/87/69
f 7/90/70 16/91/70 20/92/70
f 7/10/71 17/24/71 16/23/71
f 7/10/72 6/9/72 17/24/72
f 6/9/73 13/20/73 17/24/73
f 6/9/74 14/21/74 13/20/74
f 6/93/75 3/94/75 14/95/75
f 3/8/76 10/80/76 14/21/76
f 5/15/77 8/96/77 19/35/77
f 5/15/78 2/97/78 8/96/78
f 2/98/79 1/11/79 8/13/79
f 3/99/80 11/18/80 10/17/80
f 3/3/81 2/2/81 11/100/81
f 2/97/82 4/14/82 11/84/82
